<?xml version="1.0" encoding="UTF-8" standalone="no"?>
<svg width="181px" height="40px" viewBox="0 0 181 40" version="1.1" xmlns="http://www.w3.org/2000/svg" xmlns:xlink="http://www.w3.org/1999/xlink">
    <!-- Generator: Sketch 41 (35326) - http://www.bohemiancoding.com/sketch -->
    <title>lo_tringapps</title>
    <desc>Created with Sketch.</desc>
    <defs></defs>
    <g id="Page-1" stroke="none" stroke-width="1" fill="none" fill-rule="evenodd">
        <g id="1.0_tringapps_home" transform="translate(-100.000000, -21.000000)" fill="#5BBC2E">
            <g id="Main-Nav-Top">
                <g id="Logo" transform="translate(48.000000, 3.000000)">
                    <g id="lo_tringapps" transform="translate(52.000000, 18.000000)">
                        <path d="M5.4180752,4.6815926 C4.53606296,7.08565367 3.52804897,9.36318521 0.588008162,9.61624427 L0.168002332,12.6951295 L3.15004372,12.6951295 L3.15004372,23.9562576 C3.15004372,26.9086133 3.10804314,30.9575583 9.66013408,30.9575583 C11.6341615,30.9575583 13.7341906,30.3670872 14.9942081,29.4813804 L13.7341906,26.2337892 C13.0621813,26.6555543 12.0121667,27.1194959 10.878151,27.1194959 C9.15612709,27.1194959 8.1481131,26.3603187 8.1481131,23.7875516 L8.1481131,12.6951295 L13.3141848,12.6951295 L13.7341906,9.15230266 L8.1481131,9.15230266 L8.1481131,4.6815926 L5.4180752,4.6815926 Z M19.8242752,25.643318 C19.8242752,26.6977308 19.4042693,26.9507898 18.6062583,27.0351429 L17.220239,27.1616724 L17.220239,30.3670872 L28.4763953,30.3670872 L28.4763953,27.0351429 L24.8223445,26.8664368 L24.8223445,17.0814865 C24.8223445,14.6352489 26.3763661,12.821659 28.6443976,12.821659 C29.106404,12.821659 29.4004081,12.8638355 29.7784133,13.0325416 C30.114418,13.2012476 30.1984192,13.5808362 30.1984192,14.0869543 L30.1984192,16.0270738 L34.1044734,15.7318382 L34.1044734,9.44753823 C32.7184541,8.77271407 31.4584366,8.51965501 30.0724174,8.51965501 C27.3003789,8.51965501 25.074348,10.2067154 24.1083346,12.3155409 L24.1083346,9.15230266 L17.0102361,9.15230266 L17.0102361,12.5686 L18.7742606,12.6951295 C19.5722717,12.737306 19.8242752,13.0325416 19.8242752,13.9604248 L19.8242752,25.643318 Z M43.806608,9.15230266 L36.2885037,9.15230266 L36.2885037,12.652953 L37.7585241,12.737306 C38.5565352,12.737306 38.8085387,13.0325416 38.8085387,13.9604248 L38.8085387,25.6854946 C38.8085387,26.6977308 38.3465322,26.9507898 37.5905218,27.0351429 L36.2045025,27.1616724 L36.2045025,30.3670872 L46.2006413,30.3670872 L46.2006413,26.9929664 L43.806608,26.8664368 L43.806608,9.15230266 Z M37.6325223,3.28976777 C37.6325223,5.06118119 38.8925398,6.368653 40.8245666,6.368653 C42.7145929,6.368653 44.0586115,5.06118119 44.0586115,3.28976777 C44.0586115,1.51835436 42.7145929,0.12652953 40.8665672,0.12652953 C38.8925398,0.12652953 37.6325223,1.51835436 37.6325223,3.28976777 Z M48.5946745,12.5264235 L50.358699,12.652953 C51.1147095,12.6951295 51.4087135,13.0325416 51.4087135,13.9604248 L51.4087135,25.643318 C51.4087135,26.6977308 50.9887077,26.9507898 50.1906966,27.0351429 L48.8046774,27.1616724 L48.8046774,30.3670872 L58.8008162,30.3670872 L58.8008162,26.9929664 L56.4067829,26.8664368 L56.4067829,16.6597214 C56.4067829,14.4665429 57.9608045,12.3998939 60.732843,12.3998939 C63.5888826,12.3998939 64.1768908,14.1713073 64.1768908,16.954957 L64.1768908,25.643318 C64.1768908,26.6977308 63.7568849,26.9507898 62.9588739,27.0351429 L61.5728546,27.1616724 L61.5728546,30.3670872 L71.5689934,30.3670872 L71.5689934,26.9929664 L69.1749601,26.8664368 L69.1749601,15.8583677 C69.1749601,10.8815396 66.6969257,8.51965501 62.4968675,8.51965501 C59.724829,8.51965501 57.1627934,9.7849503 55.692773,11.8937758 L55.692773,9.15230266 L48.5946745,9.15230266 L48.5946745,12.5264235 Z M82.6151467,39.3928603 C88.9152341,39.3928603 91.8132744,36.5248576 92.3172814,30.3249106 C92.4432831,28.8065563 92.4012825,27.2038489 92.4012825,25.7276711 L92.4012825,10.0801859 C89.9232481,9.02577313 86.6472027,8.51965501 84.6311747,8.51965501 C78.2890866,8.51965501 73.7110231,12.1046584 73.7110231,19.7386066 C73.7110231,24.5467288 75.8110523,29.60791 81.9431374,29.60791 C84.0011659,29.60791 86.1011951,28.9330858 87.5292149,27.2460254 L87.5292149,29.5657335 C87.5292149,33.1085603 86.5212009,35.7656804 82.6571473,35.7656804 C81.3971298,35.7656804 80.473117,35.6391509 79.6751059,35.3439153 C78.9190954,35.0486798 78.7090925,34.6269147 78.7090925,33.825561 L78.7090925,31.8010885 L74.7190371,32.1385006 L74.7190371,38.0010355 C76.4830616,38.8867422 79.96911,39.3928603 82.6151467,39.3928603 Z M87.5292149,21.7630791 C87.5292149,24.3358462 85.5971881,25.8963771 83.2451554,25.8963771 C79.3391012,25.8963771 78.8770948,22.1004912 78.8770948,19.2324885 C78.8770948,14.972661 80.6831199,12.1890114 84.1691683,12.1890114 C85.3451846,12.1890114 86.5632015,12.3577174 87.5292149,12.6951295 L87.5292149,21.7630791 Z M113.023569,9.99583285 C109.999527,8.85706709 106.933484,8.51965501 105.547465,8.51965501 C97.9873601,8.51965501 94.4593111,13.2434241 94.4593111,20.6664899 C94.4593111,26.6977308 96.9373455,30.9153818 102.859428,30.9153818 C105.16946,30.9153818 107.311489,29.776616 108.613508,27.8786731 L108.739509,27.9208496 L108.739509,30.3670872 L115.417602,30.3670872 L115.417602,26.9929664 L114.073583,26.9086133 C113.275572,26.8664368 113.023569,26.6133778 113.023569,25.6854946 L113.023569,9.99583285 Z M108.151501,23.6610221 C108.151501,25.474612 106.555479,27.3303784 103.951443,27.3303784 C100.423394,27.3303784 99.5833822,23.9984342 99.5833822,20.4977838 C99.5833822,15.9427208 100.927401,12.1890114 104.917456,12.1890114 C106.219474,12.1890114 107.521492,12.4420704 108.151501,12.737306 L108.151501,23.6610221 Z M120.33167,34.3738556 C120.33167,35.4282683 119.911664,35.6813274 119.113653,35.7656804 L117.727634,35.89221 L117.727634,39.0976247 L128.563784,39.0976247 L128.563784,35.7656804 L125.161737,35.5969744 L125.161737,29.776616 C126.253752,30.4514402 128.017777,30.9997348 129.6558,30.9997348 C135.199877,30.9997348 138.853927,26.9929664 138.853927,19.2324885 C138.853927,11.6828933 135.913886,8.51965501 131.251822,8.51965501 C127.681772,8.51965501 125.37174,10.4597745 124.61573,11.8937758 L124.61573,9.15230266 L117.517631,9.15230266 L117.517631,12.5686 L119.281656,12.6951295 C120.079667,12.6951295 120.33167,13.0325416 120.33167,13.9604248 L120.33167,34.3738556 Z M133.645855,19.6542536 C133.645855,23.32361 132.427838,26.9929664 128.857789,26.9929664 C127.765773,26.9929664 126.253752,26.6555543 125.161737,25.9385536 L125.161737,16.2379563 C125.161737,14.2978369 127.009763,12.6107765 129.403796,12.6107765 C131.629827,12.6107765 133.645855,14.0447778 133.645855,19.6542536 Z M143.767995,34.3738556 C143.767995,35.4282683 143.34799,35.6813274 142.549979,35.7656804 L141.163959,35.89221 L141.163959,39.0976247 L152.00011,39.0976247 L152.00011,35.7656804 L148.598063,35.5969744 L148.598063,29.776616 C149.690078,30.4514402 151.454102,30.9997348 153.092125,30.9997348 C158.636202,30.9997348 162.290253,26.9929664 162.290253,19.2324885 C162.290253,11.6828933 159.350212,8.51965501 154.688147,8.51965501 C151.118098,8.51965501 148.808065,10.4597745 148.052055,11.8937758 L148.052055,9.15230266 L140.953956,9.15230266 L140.953956,12.5686 L142.717981,12.6951295 C143.515992,12.6951295 143.767995,13.0325416 143.767995,13.9604248 L143.767995,34.3738556 Z M157.08218,19.6542536 C157.08218,23.32361 155.864163,26.9929664 152.294114,26.9929664 C151.202099,26.9929664 149.690078,26.6555543 148.598063,25.9385536 L148.598063,16.2379563 C148.598063,14.2978369 150.446088,12.6107765 152.840121,12.6107765 C155.066152,12.6107765 157.08218,14.0447778 157.08218,19.6542536 Z M175.016429,12.3577174 C175.77244,12.652953 175.982443,12.9903651 175.982443,13.7917187 L175.982443,15.5631322 L179.762495,15.2678966 L179.762495,10.2067154 C178.124472,9.40536172 175.646438,8.51965501 172.790398,8.51965501 C168.380337,8.51965501 164.684286,10.8393631 164.684286,15.2257201 C164.684286,19.9073127 168.086333,20.9617254 171.194376,21.7630791 C173.462408,22.3535503 175.310433,22.7331389 175.310433,24.7576113 C175.310433,26.5290247 174.092416,27.3303784 171.992387,27.3303784 C170.984373,27.3303784 170.01836,27.2038489 169.220349,26.9086133 C168.464338,26.6133778 168.254335,26.2759657 168.254335,25.474612 L168.254335,23.4501395 L164.474283,23.7453751 L164.474283,29.60791 C166.238307,30.4936167 169.556353,30.9153818 172.20239,30.9153818 C176.696453,30.9153818 180.308503,28.5534972 180.308503,24.1671402 C180.308503,19.5699006 176.696453,18.5154879 173.420407,17.5876046 C171.44638,17.03931 169.430352,16.4488389 169.430352,14.5087194 C169.430352,12.821659 170.77437,11.9781288 172.580395,11.9781288 C173.588409,11.9781288 174.218418,12.0624818 175.016429,12.3577174 Z" id="tringapps-copy-2"></path>
                    </g>
                </g>
            </g>
        </g>
    </g>
</svg>