<?xml version="1.0" standalone="no"?>
<!DOCTYPE svg PUBLIC "-//W3C//DTD SVG 20010904//EN"
 "http://www.w3.org/TR/2001/REC-SVG-20010904/DTD/svg10.dtd">
<svg version="1.0" xmlns="http://www.w3.org/2000/svg"
 width="629.000000pt" height="629.000000pt" viewBox="0 0 629.000000 629.000000"
 preserveAspectRatio="xMidYMid meet">
<metadata>
Created by potrace 1.15, written by Peter Selinger 2001-2017
</metadata>
<g transform="translate(0.000000,629.000000) scale(0.100000,-0.100000)"
fill="#000000" stroke="none">
<path d="M2 4783 c1 -830 3 -1485 5 -1458 33 534 214 1085 498 1521 551 846
1455 1374 2460 1437 28 2 -628 4 -1457 5 l-1508 2 2 -1507z"/>
<path d="M3340 6283 c1010 -59 1952 -622 2486 -1485 229 -370 394 -830 443
-1233 6 -49 13 -101 15 -115 2 -14 4 620 5 1408 l1 1432 -1502 -2 c-827 -1
-1478 -3 -1448 -5z"/>
<path d="M2960 5239 c-41 -4 -91 -13 -110 -18 -19 -6 -62 -18 -95 -27 -33 -9
-115 -43 -182 -76 -99 -47 -137 -61 -195 -67 -185 -21 -369 -142 -493 -326
-22 -33 -86 -105 -141 -160 -99 -98 -154 -171 -192 -257 -64 -143 -100 -301
-107 -473 -2 -49 -9 -137 -15 -195 -20 -182 -2 -380 51 -540 l18 -55 -54 -6
c-83 -10 -127 -43 -173 -132 -26 -51 -27 -56 -27 -227 0 -278 27 -371 158
-553 l49 -68 9 -162 c14 -282 40 -451 109 -716 26 -99 47 -151 60 -151 13 0
14 -5 -14 113 -14 56 -32 143 -41 192 -9 50 -20 115 -26 145 -10 58 -22 249
-13 215 3 -11 19 -75 35 -143 56 -227 125 -413 229 -608 63 -120 178 -280 192
-266 4 4 0 39 -11 77 -16 63 -35 173 -61 365 -17 120 -42 397 -38 425 2 24 9
14 43 -63 42 -97 113 -201 199 -290 82 -86 290 -250 411 -325 33 -21 78 -52
99 -70 37 -32 39 -37 37 -85 -2 -66 -18 -152 -32 -168 -11 -13 -184 -89 -295
-130 -48 -17 -83 -22 -163 -22 -56 0 -114 -3 -129 -6 -15 -3 -76 -10 -137 -15
-60 -6 -129 -17 -151 -25 l-42 -14 -122 69 c-718 409 -1225 1048 -1469 1849
-63 210 -111 478 -124 700 -2 30 -4 -621 -5 -1447 l-2 -1503 1433 1 c787 1
1421 3 1407 5 -14 2 -65 9 -115 15 -227 28 -491 97 -745 197 l-124 49 79 11
c44 6 123 14 175 17 85 6 104 3 180 -20 210 -65 356 -103 505 -132 125 -23
440 -23 583 0 158 27 386 83 439 109 39 19 46 3 57 -123 l4 -56 -111 -21 c-97
-18 -186 -32 -302 -45 -16 -2 612 -5 1398 -6 l1427 -1 -1 1428 c-1 785 -3
1416 -5 1402 -2 -14 -9 -65 -15 -115 -72 -589 -357 -1208 -775 -1677 -224
-252 -536 -499 -840 -663 l-71 -39 -39 45 c-88 100 -178 188 -268 264 -95 79
-96 81 -90 117 4 25 -1 48 -15 77 -12 22 -21 54 -21 70 0 17 -7 48 -16 70
l-15 39 76 79 c226 232 391 506 506 840 19 56 44 107 63 130 90 105 155 223
179 323 16 68 43 337 34 346 -2 3 10 44 29 91 35 89 64 217 64 284 0 72 -38
189 -83 253 -11 16 -24 45 -28 65 -30 139 -62 206 -146 307 -33 38 -63 81 -66
95 -22 92 -32 127 -68 231 -86 253 -241 509 -439 723 -171 185 -361 312 -560
372 -264 80 -497 107 -720 82z m-597 -1102 c14 -36 183 -235 288 -339 107
-105 335 -288 414 -332 17 -9 53 -30 80 -46 107 -63 234 -119 379 -168 l118
-40 -78 -16 c-159 -35 -194 -58 -194 -129 l0 -39 53 5 c28 3 93 15 142 28 75
19 118 23 260 23 l170 1 85 -45 c47 -25 91 -51 98 -57 7 -7 20 -13 28 -13 12
0 11 7 -5 39 l-20 39 67 -24 c37 -14 73 -32 80 -42 19 -24 82 -161 82 -177 0
-8 4 -16 9 -19 4 -3 11 -25 15 -48 4 -23 11 -47 15 -53 12 -14 34 -162 32
-210 -6 -155 -43 -305 -141 -575 -17 -47 -47 -134 -66 -195 -67 -207 -158
-362 -280 -476 -71 -67 -267 -219 -343 -266 -42 -26 -113 -75 -158 -110 -45
-35 -106 -74 -136 -88 -51 -22 -65 -24 -248 -24 -228 0 -258 7 -352 84 -34 27
-98 73 -142 102 -92 61 -183 124 -199 138 -6 6 -45 37 -86 70 -145 115 -263
254 -309 365 -13 30 -31 73 -41 95 -17 39 -29 74 -64 185 -10 30 -22 64 -26
75 -24 54 -32 115 -37 280 -8 271 26 728 68 920 22 98 41 181 49 215 11 44 68
228 79 255 5 11 27 70 50 130 56 145 230 495 246 495 7 0 15 -6 18 -13z m-872
-1197 c21 -12 25 -41 9 -71 -9 -15 -15 -17 -30 -9 -27 14 -60 12 -60 -3 0 -8
11 -19 24 -26 43 -23 49 -48 37 -154 -6 -53 -11 -156 -11 -229 0 -136 -7 -208
-20 -208 -11 0 -60 107 -75 164 -19 73 -37 285 -30 353 8 80 31 138 66 168 33
27 59 31 90 15z m3324 -21 c62 -55 79 -174 54 -384 -21 -176 -55 -252 -188
-417 -47 -59 -74 -83 -116 -102 -54 -26 -85 -33 -85 -18 0 4 11 38 24 77 21
61 27 70 53 76 41 8 57 19 92 63 45 56 38 65 -14 17 -26 -24 -54 -41 -69 -41
-22 0 -23 2 -16 38 5 20 14 71 20 112 13 85 19 113 49 220 11 41 21 86 21 99
0 20 2 22 16 10 8 -7 23 -26 32 -43 21 -40 23 -176 3 -200 -7 -9 -10 -16 -5
-16 15 0 28 14 44 44 18 36 20 170 2 188 -7 7 -12 20 -12 29 0 9 -7 22 -15 29
-26 22 -17 46 40 99 30 29 55 56 55 62 0 21 -51 7 -94 -26 l-46 -35 0 48 c0
55 5 64 45 85 44 24 70 21 110 -14z m-1193 -2174 c5 -22 22 -53 38 -70 16 -16
36 -47 44 -67 9 -20 32 -50 51 -65 32 -25 64 -87 52 -99 -12 -13 -232 90 -241
113 -11 26 -20 198 -12 218 4 11 15 15 33 13 23 -2 29 -9 35 -43z m-766 -85
c43 -15 85 -18 245 -18 189 0 284 12 313 39 22 21 34 7 40 -48 9 -71 29 -150
41 -162 6 -5 39 -21 75 -36 59 -25 121 -51 175 -75 11 -5 31 -12 44 -15 13 -4
19 -11 14 -16 -13 -13 -114 -43 -243 -73 -185 -43 -198 -45 -341 -57 -140 -11
-332 -2 -444 22 -101 22 -181 40 -210 48 -183 53 -198 62 -135 76 16 4 32 11
35 16 4 5 12 9 20 9 7 0 44 14 82 31 37 17 87 39 111 50 24 11 45 27 48 37 3
9 9 24 14 33 5 9 11 38 15 65 13 97 16 106 33 99 10 -4 40 -15 68 -25z"/>
<path d="M2345 3214 c-112 -12 -210 -58 -276 -132 -78 -88 -97 -142 -34 -98
11 7 56 33 99 56 79 43 80 43 200 48 125 4 223 -6 336 -33 36 -9 89 -18 118
-22 l52 -5 0 40 c0 49 -27 83 -80 100 -104 34 -309 57 -415 46z"/>
<path d="M2264 2901 c-106 -32 -166 -75 -214 -153 l-32 -51 69 -66 c63 -61
134 -105 233 -143 48 -18 220 -16 290 4 109 31 270 117 270 143 0 22 -43 96
-82 140 -52 58 -131 108 -204 128 -82 23 -248 22 -330 -2z m50 -93 c-27 -51
-22 -130 10 -178 29 -44 95 -80 146 -80 69 0 138 52 166 127 16 41 16 49 2 93
-14 45 -14 48 1 43 65 -21 99 -46 145 -106 45 -58 37 -74 -65 -126 -208 -109
-440 -86 -570 57 -27 29 -49 58 -49 63 0 6 21 31 48 57 46 46 113 80 160 81
22 1 22 1 6 -31z"/>
<path d="M3610 2902 c-80 -27 -117 -48 -172 -100 -48 -45 -108 -136 -108 -165
0 -15 106 -84 175 -113 86 -36 197 -56 280 -51 44 3 94 10 110 17 97 40 166
82 223 136 73 70 75 80 24 150 -35 48 -91 88 -163 116 -78 30 -291 36 -369 10z
m355 -79 c31 -11 68 -36 98 -65 46 -46 47 -48 33 -75 -8 -16 -32 -45 -53 -65
-138 -133 -378 -140 -590 -18 -61 35 -65 51 -29 108 41 66 173 139 151 85 -35
-91 4 -186 92 -224 53 -23 89 -24 134 -5 94 40 138 150 95 237 -9 17 -16 34
-16 36 0 8 39 2 85 -14z"/>
<path d="M3274 2725 c-26 -45 -35 -128 -24 -229 12 -121 24 -167 50 -198 23
-27 23 -28 9 87 -6 50 -14 151 -17 225 -6 108 -9 131 -18 115z"/>
<path d="M3357 2084 c-3 -3 -2 -17 4 -31 13 -34 11 -97 -2 -110 -8 -8 -33 -10
-73 -6 -55 5 -65 3 -103 -23 -24 -15 -43 -31 -43 -35 0 -5 -7 -5 -17 -2 -10 4
-14 2 -9 -5 13 -22 -32 -4 -83 34 -49 35 -55 36 -110 31 -32 -2 -63 -2 -69 2
-6 4 -12 38 -14 76 l-3 70 -18 -37 c-23 -51 -22 -99 5 -133 20 -25 25 -27 77
-23 54 5 101 -6 101 -23 0 -13 85 -59 107 -59 12 0 45 19 75 42 51 41 55 43
115 40 82 -3 103 15 103 91 0 50 -28 116 -43 101z"/>
<path d="M3656 1586 c-32 -31 -89 -44 -326 -76 -127 -17 -421 -13 -520 7 -14
3 -50 8 -81 13 -89 12 -162 33 -181 53 -32 31 -71 18 -98 -33 -7 -14 -6 -23 6
-34 8 -9 18 -16 22 -16 73 -5 121 -11 141 -19 110 -44 554 -70 731 -43 36 6
99 16 140 22 41 6 83 16 94 22 11 6 46 11 78 12 39 1 63 6 74 18 24 23 11 64
-26 83 -29 15 -31 14 -54 -9z"/>
</g>
</svg>
