<?xml version="1.0" encoding="UTF-8" standalone="no"?>
<svg width="440px" height="391px" viewBox="0 0 440 391" version="1.1" xmlns="http://www.w3.org/2000/svg" xmlns:xlink="http://www.w3.org/1999/xlink">
    <defs>
        <rect id="path-1" x="15.4140127" y="15.4160584" width="179.363057" height="120.525547"></rect>
        <rect id="path-2" x="5.60509554" y="22.4233577" width="93.8853503" height="152.759124"></rect>
    </defs>
    <g id="Page-1" stroke="none" stroke-width="1" fill="none" fill-rule="evenodd">
        <g id="02---Product" transform="translate(-480.000000, -3256.000000)">
            <g id="06" transform="translate(0.000000, 2932.000000)">
                <g id="Iconography3" transform="translate(480.000000, 327.000000)">
                    <ellipse id="Oval-3" stroke="#317EB5" stroke-width="4.2" stroke-linecap="round" stroke-dasharray="14" cx="191.987261" cy="163.970803" rx="163.949045" ry="163.970803"></ellipse>
                    <g id="Web" transform="translate(182.165605, 30.029197)">
                        <rect id="BG" fill="#FFFFFF" x="0" y="0" width="257.834395" height="179.386861" rx="5.6"></rect>
                        <g id="Left-Panel">
                            <path d="M0,5.59021789 C0,2.5028258 2.49926117,0 5.59924697,0 L16.8152866,0 L16.8152866,179.386861 L5.59924697,179.386861 C2.50686826,179.386861 0,176.885236 0,173.796643 L0,5.59021789 Z" id="Rectangle-13-Copy-2" fill="#08716E"></path>
                            <rect id="Rectangle-14" fill="#37BB90" x="2.80254777" y="12.6131387" width="11.2101911" height="11.2116788" rx="2.8"></rect>
                            <rect id="Rectangle-14-Copy" fill="#37BB90" x="2.80254777" y="29.4306569" width="11.2101911" height="11.2116788" rx="2.8"></rect>
                            <rect id="Rectangle-14-Copy-2" fill="#37BB90" x="2.80254777" y="46.2481752" width="11.2101911" height="11.2116788" rx="2.8"></rect>
                        </g>
                        <g id="Slider" transform="translate(16.815287, 8.408759)">
                            <rect id="BG" fill="#059591" x="0" y="0" width="51.8471338" height="170.978102"></rect>
                            <path d="M4.20382166,9.81021898 L36.433121,9.81021898 L36.433121,12.6131387 L4.20382166,12.6131387 L4.20382166,9.81021898 Z M4.20382166,19.620438 L23.8216561,19.620438 L23.8216561,22.4233577 L4.20382166,22.4233577 L4.20382166,19.620438 Z M4.20382166,29.4306569 L30.8280255,29.4306569 L30.8280255,32.2335766 L4.20382166,32.2335766 L4.20382166,29.4306569 Z" id="Rectangle-15" fill="#FFFFFF"></path>
                            <path d="M43.4394904,14.0145985 C44.9872948,14.0145985 46.2420382,12.7596886 46.2420382,11.2116788 C46.2420382,9.66366902 44.9872948,8.40875912 43.4394904,8.40875912 C41.8916861,8.40875912 40.6369427,9.66366902 40.6369427,11.2116788 C40.6369427,12.7596886 41.8916861,14.0145985 43.4394904,14.0145985 Z" id="Oval-4" fill="#FF3987"></path>
                            <path d="M4.20382166,39.2408759 L36.433121,39.2408759 L36.433121,42.0437956 L4.20382166,42.0437956 L4.20382166,39.2408759 Z M4.20382166,49.0510949 L23.8216561,49.0510949 L23.8216561,51.8540146 L4.20382166,51.8540146 L4.20382166,49.0510949 Z M4.20382166,58.8613139 L18.2165605,58.8613139 L18.2165605,61.6642336 L4.20382166,61.6642336 L4.20382166,58.8613139 Z M4.20382166,70.0729927 L29.4267516,70.0729927 L29.4267516,72.8759124 L4.20382166,72.8759124 L4.20382166,70.0729927 Z M4.20382166,79.8832117 L36.433121,79.8832117 L36.433121,82.6861314 L4.20382166,82.6861314 L4.20382166,79.8832117 Z M4.20382166,89.6934307 L23.8216561,89.6934307 L23.8216561,92.4963504 L4.20382166,92.4963504 L4.20382166,89.6934307 Z M4.20382166,99.5036496 L18.2165605,99.5036496 L18.2165605,102.306569 L4.20382166,102.306569 L4.20382166,99.5036496 Z M4.20382166,109.313869 L29.4267516,109.313869 L29.4267516,112.116788 L4.20382166,112.116788 L4.20382166,109.313869 Z" id="Rectangle-15-Copy-3" fill="#FFFFFF" opacity="0.5"></path>
                        </g>
                        <path d="M0,4.20437956 C0,1.88236485 1.89088727,0 4.20708044,0 L253.627314,0 C255.950821,0 257.834395,1.88708968 257.834395,4.20437956 L257.834395,8.40875912 L0,8.40875912 L0,4.20437956 Z" id="Nav.-Bar" fill="#D8D8D8"></path>
                        <g id="Details" transform="translate(72.866242, 18.218978)">
                            <rect id="Rectangle-14" fill="#37BB90" x="2.80254777" y="0" width="16.8152866" height="16.8175182" rx="2.8"></rect>
                            <path d="M26.6242038,0 L58.8535032,0 L58.8535032,2.80291971 L26.6242038,2.80291971 L26.6242038,0 Z M26.6242038,7.00729927 L103.694268,7.00729927 L103.694268,9.81021898 L26.6242038,9.81021898 L26.6242038,7.00729927 Z M26.6242038,14.0145985 L99.4904459,14.0145985 L99.4904459,16.8175182 L26.6242038,16.8175182 L26.6242038,14.0145985 Z M26.6242038,21.0218978 L86.8789809,21.0218978 L86.8789809,23.8248175 L26.6242038,23.8248175 L26.6242038,21.0218978 Z M26.6242038,28.0291971 L93.8853503,28.0291971 L93.8853503,30.8321168 L26.6242038,30.8321168 L26.6242038,28.0291971 Z M26.6242038,35.0364964 L93.8853503,35.0364964 L93.8853503,37.8394161 L26.6242038,37.8394161 L26.6242038,35.0364964 Z" id="Rectangle-15" fill="#D8D8D8"></path>
                            <rect id="Rectangle-15-Copy-16" fill="#F3F3F3" x="26.6242038" y="43.4452555" width="77.0700637" height="61.6642336"></rect>
                            <rect id="Rectangle-14" fill="#6BCBDD" x="2.80254777" y="116.321168" width="16.8152866" height="16.8175182" rx="2.8"></rect>
                            <path d="M26.6242038,116.321168 L58.8535032,116.321168 L58.8535032,119.124088 L26.6242038,119.124088 L26.6242038,116.321168 Z M26.6242038,123.328467 L103.694268,123.328467 L103.694268,126.131387 L26.6242038,126.131387 L26.6242038,123.328467 Z M26.6242038,130.335766 L99.4904459,130.335766 L99.4904459,133.138686 L26.6242038,133.138686 L26.6242038,130.335766 Z" id="Rectangle-15" fill="#D8D8D8"></path>
                            <rect id="Path" fill="#D8D8D8" x="0" y="144.350365" width="107.898089" height="9.81021898" rx="2.1"></rect>
                        </g>
                        <rect id="Rectangle-18" fill="#F4F4F4" x="186.369427" y="8.40875912" width="1.40127389" height="169.576642"></rect>
                        <g id="Right-Panel" transform="translate(190.573248, 12.613139)">
                            <path d="M0.42,1.67842277 C0.42,0.982596377 0.982352852,0.42 1.67925156,0.42 L31.9513217,0.42 C32.6474301,0.42 33.2105732,0.982505819 33.2105732,1.67842277 L33.2105732,5.3288765 C33.2105732,6.02470289 32.6482204,6.58729927 31.9513217,6.58729927 L1.67925156,6.58729927 C0.983143197,6.58729927 0.42,6.02479345 0.42,5.3288765 L0.42,1.67842277 Z M36.853121,3.50364964 C36.853121,1.80201627 38.2360265,0.42 39.9363057,0.42 C41.6376575,0.42 43.0194904,1.80308909 43.0194904,3.50364964 C43.0194904,5.205283 41.6365849,6.58729927 39.9363057,6.58729927 C38.2349539,6.58729927 36.853121,5.20421018 36.853121,3.50364964 Z M45.2607643,3.50364964 C45.2607643,1.80201627 46.6436699,0.42 48.343949,0.42 C50.0453008,0.42 51.4271338,1.80308909 51.4271338,3.50364964 C51.4271338,5.205283 50.0442282,6.58729927 48.343949,6.58729927 C46.6425972,6.58729927 45.2607643,5.20421018 45.2607643,3.50364964 Z M53.6684076,3.50364964 C53.6684076,1.80201627 55.0513132,0.42 56.7515924,0.42 C58.4529442,0.42 59.8347771,1.80308909 59.8347771,3.50364964 C59.8347771,5.205283 58.4518715,6.58729927 56.7515924,6.58729927 C55.0502406,6.58729927 53.6684076,5.20421018 53.6684076,3.50364964 Z" id="Rectangle-17" stroke="#D8D8D8" stroke-width="0.84"></path>
                            <rect id="Rectangle-19" fill="#F3F3F3" x="0" y="12.6131387" width="60.2547771" height="39.2408759"></rect>
                            <rect id="Rectangle-14" fill="#37BB90" x="0" y="60.2627737" width="12.611465" height="12.6131387" rx="2.8"></rect>
                            <path d="M15.4140127,60.2627737 L57.4522293,60.2627737 L57.4522293,63.0656934 L15.4140127,63.0656934 L15.4140127,60.2627737 Z M15.4140127,64.4671533 L39.2356688,64.4671533 L39.2356688,67.270073 L15.4140127,67.270073 L15.4140127,64.4671533 Z M15.4140127,68.6715328 L49.044586,68.6715328 L49.044586,71.4744526 L15.4140127,71.4744526 L15.4140127,68.6715328 Z" id="Rectangle-15" fill="#D8D8D8"></path>
                            <rect id="Rectangle-14-Copy-3" fill="#FFC680" x="0" y="79.8832117" width="12.611465" height="12.6131387" rx="2.8"></rect>
                            <path d="M15.4140127,79.8832117 L57.4522293,79.8832117 L57.4522293,82.6861314 L15.4140127,82.6861314 L15.4140127,79.8832117 Z M15.4140127,84.0875912 L39.2356688,84.0875912 L39.2356688,86.8905109 L15.4140127,86.8905109 L15.4140127,84.0875912 Z M15.4140127,88.2919708 L49.044586,88.2919708 L49.044586,91.0948905 L15.4140127,91.0948905 L15.4140127,88.2919708 Z" id="Rectangle-15-Copy-19" fill="#D8D8D8"></path>
                            <rect id="Rectangle-14-Copy-4" fill="#FF3987" x="0" y="100.905109" width="12.611465" height="12.6131387" rx="2.8"></rect>
                            <path d="M15.4140127,100.905109 L57.4522293,100.905109 L57.4522293,103.708029 L15.4140127,103.708029 L15.4140127,100.905109 Z M15.4140127,105.109489 L39.2356688,105.109489 L39.2356688,107.912409 L15.4140127,107.912409 L15.4140127,105.109489 Z M15.4140127,109.313869 L49.044586,109.313869 L49.044586,112.116788 L15.4140127,112.116788 L15.4140127,109.313869 Z" id="Rectangle-15-Copy-22" fill="#D8D8D8"></path>
                            <rect id="Rectangle-17" stroke="#D8D8D8" stroke-width="0.84" x="1.82127389" y="150.376204" width="59.4147771" height="8.97021898" rx="2.1"></rect>
                        </g>
                    </g>
                    <g id="iPad" transform="translate(119.509554, 235.240876)">
                        <rect id="Rectangle-20" fill="#FFFFFF" x="0" y="0" width="210.191083" height="152.759124" rx="11.2"></rect>
                        <ellipse id="Oval-5" fill="#AFAFAF" cx="9.10828025" cy="73.5766423" rx="2.10191083" ry="2.10218978"></ellipse>
                        <ellipse id="Oval-6" stroke="#E2E2E2" stroke-width="0.84" cx="202.484076" cy="74.9781022" rx="4.4844586" ry="4.48510949"></ellipse>
                        <g id="Rectangle-21">
                            <use fill="#FFFFFF" fill-rule="evenodd" xlink:href="#path-1"></use>
                            <rect stroke="#DBDBDB" stroke-width="1.4" x="16.1140127" y="16.1160584" width="177.963057" height="119.125547"></rect>
                        </g>
                        <g id="Left-Panel" transform="translate(16.815287, 16.817518)">
                            <rect id="BG" fill="#059591" x="0" y="0" width="44.8407643" height="117.722628"></rect>
                            <path d="M5.60509554,9.81021898 L30.8280255,9.81021898 L30.8280255,12.6131387 L5.60509554,12.6131387 L5.60509554,9.81021898 Z M5.60509554,18.2189781 L21.0191083,18.2189781 L21.0191083,21.0218978 L5.60509554,21.0218978 L5.60509554,18.2189781 Z M5.60509554,26.6277372 L26.6242038,26.6277372 L26.6242038,29.4306569 L5.60509554,29.4306569 L5.60509554,26.6277372 Z" id="Rectangle-15" fill="#FFFFFF"></path>
                            <path d="M38.5350318,14.0145985 C39.6958851,14.0145985 40.6369427,13.0734161 40.6369427,11.9124088 C40.6369427,10.7514014 39.6958851,9.81021898 38.5350318,9.81021898 C37.3741786,9.81021898 36.433121,10.7514014 36.433121,11.9124088 C36.433121,13.0734161 37.3741786,14.0145985 38.5350318,14.0145985 Z" id="Oval-4" fill="#FF3987"></path>
                            <rect id="Rectangle-15-Copy-3" fill="#FFFFFF" opacity="0.5" x="5.60509554" y="35.0364964" width="25.2229299" height="2.80291971"></rect>
                            <path d="M4.20382166,50.4525547 L23.8216561,50.4525547 L23.8216561,53.2554745 L4.20382166,53.2554745 L4.20382166,50.4525547 Z M4.20382166,58.8613139 L18.2165605,58.8613139 L18.2165605,61.6642336 L4.20382166,61.6642336 L4.20382166,58.8613139 Z M4.20382166,67.270073 L29.4267516,67.270073 L29.4267516,70.0729927 L4.20382166,70.0729927 L4.20382166,67.270073 Z M4.20382166,75.6788321 L36.433121,75.6788321 L36.433121,78.4817518 L4.20382166,78.4817518 L4.20382166,75.6788321 Z M4.20382166,84.0875912 L23.8216561,84.0875912 L23.8216561,86.8905109 L4.20382166,86.8905109 L4.20382166,84.0875912 Z M4.20382166,92.4963504 L18.2165605,92.4963504 L18.2165605,95.2992701 L4.20382166,95.2992701 L4.20382166,92.4963504 Z M4.20382166,100.905109 L29.4267516,100.905109 L29.4267516,103.708029 L4.20382166,103.708029 L4.20382166,100.905109 Z" id="Rectangle-15-Copy-4" fill="#FFFFFF" opacity="0.5"></path>
                        </g>
                        <g id="Details" transform="translate(67.261146, 23.824818)">
                            <rect id="Rectangle-14" fill="#37BB90" x="0" y="0" width="14.0127389" height="14.0145985" rx="2.24000003"></rect>
                            <path d="M18.2165605,0 L43.4394904,0 L43.4394904,2.80291971 L18.2165605,2.80291971 L18.2165605,0 Z M18.2165605,5.60583942 L98.089172,5.60583942 L98.089172,8.40875912 L18.2165605,8.40875912 L18.2165605,5.60583942 Z M18.2165605,11.2116788 L89.6815287,11.2116788 L89.6815287,14.0145985 L18.2165605,14.0145985 L18.2165605,11.2116788 Z" id="Rectangle-15" fill="#D8D8D8"></path>
                            <rect id="Rectangle-14" fill="#6BCBDD" x="0" y="19.620438" width="14.0127389" height="14.0145985" rx="2.24000003"></rect>
                            <path d="M18.2165605,19.620438 L53.2484076,19.620438 L53.2484076,22.4233577 L18.2165605,22.4233577 L18.2165605,19.620438 Z M18.2165605,25.2262774 L71.4649682,25.2262774 L71.4649682,28.0291971 L18.2165605,28.0291971 L18.2165605,25.2262774 Z M18.2165605,30.8321168 L105.095541,30.8321168 L105.095541,33.6350365 L18.2165605,33.6350365 L18.2165605,30.8321168 Z" id="Rectangle-15-Copy-13" fill="#D8D8D8"></path>
                            <rect id="Rectangle-14" fill="#FF3987" x="0" y="40.6423358" width="14.0127389" height="14.0145985" rx="2.24000003"></rect>
                            <path d="M18.2165605,40.6423358 L53.2484076,40.6423358 L53.2484076,43.4452555 L18.2165605,43.4452555 L18.2165605,40.6423358 Z M18.2165605,46.2481752 L71.4649682,46.2481752 L71.4649682,49.0510949 L18.2165605,49.0510949 L18.2165605,46.2481752 Z M18.2165605,51.8540146 L105.095541,51.8540146 L105.095541,54.6569343 L18.2165605,54.6569343 L18.2165605,51.8540146 Z" id="Rectangle-15" fill="#D8D8D8"></path>
                            <rect id="Rectangle-15-Copy-16" fill="#F3F3F3" x="18.2165605" y="61.6642336" width="86.8789809" height="49.0510949"></rect>
                        </g>
                    </g>
                    <g id="iPhone" transform="translate(0.000000, 53.255474)">
                        <rect id="Rectangle-22" fill="#262626" x="0" y="0" width="105.095541" height="203.211679"></rect>
                        <rect id="Rectangle-23" fill="#4D4D4D" x="46.2420382" y="11.2116788" width="19.6178344" height="2.80291971" rx="1.40145985"></rect>
                        <rect id="Rectangle-23-Copy" fill="#4D4D4D" x="36.433121" y="11.2116788" width="2.80254777" height="2.80291971" rx="1.40127389"></rect>
                        <ellipse id="Oval-7" fill="#4D4D4D" cx="53.2484076" cy="189.19708" rx="7.00636943" ry="7.00729927"></ellipse>
                        <g id="Rectangle-24">
                            <use fill="#FFFFFF" fill-rule="evenodd" xlink:href="#path-2"></use>
                            <rect stroke="#717171" stroke-width="1.4" x="6.30509554" y="23.1233577" width="92.4853503" height="151.359124"></rect>
                        </g>
                        <g id="Group-23" transform="translate(7.006369, 23.824818)">
                            <rect id="Nav.-Bar" fill="#EDEDED" x="0" y="0" width="91.0828025" height="12.6131387"></rect>
                            <rect id="Rectangle-14" fill="#37BB90" x="4.20382166" y="19.620438" width="15.4140127" height="15.4160584" rx="2.24000003"></rect>
                            <path d="M23.8216561,19.620438 L56.0509554,19.620438 L56.0509554,22.4233577 L23.8216561,22.4233577 L23.8216561,19.620438 Z M23.8216561,25.2262774 L86.8789809,25.2262774 L86.8789809,28.0291971 L23.8216561,28.0291971 L23.8216561,25.2262774 Z M23.8216561,30.8321168 L74.2675159,30.8321168 L74.2675159,33.6350365 L23.8216561,33.6350365 L23.8216561,30.8321168 Z" id="Rectangle-15" fill="#D8D8D8"></path>
                            <rect id="Rectangle-14" fill="#6BCBDD" x="4.20382166" y="44.8467153" width="15.4140127" height="15.4160584" rx="2.24000003"></rect>
                            <path d="M23.8216561,44.8467153 L56.0509554,44.8467153 L56.0509554,47.649635 L23.8216561,47.649635 L23.8216561,44.8467153 Z M23.8216561,50.4525547 L67.2611465,50.4525547 L67.2611465,53.2554745 L23.8216561,53.2554745 L23.8216561,50.4525547 Z M23.8216561,56.0583942 L82.6751592,56.0583942 L82.6751592,58.8613139 L23.8216561,58.8613139 L23.8216561,56.0583942 Z" id="Rectangle-15-Copy-13" fill="#D8D8D8"></path>
                            <rect id="Rectangle-14" fill="#FF3987" x="4.20382166" y="71.4744526" width="15.4140127" height="15.4160584" rx="2.24000003"></rect>
                            <path d="M23.8216561,71.4744526 L77.0700637,71.4744526 L77.0700637,74.2773723 L23.8216561,74.2773723 L23.8216561,71.4744526 Z M23.8216561,77.080292 L67.2611465,77.080292 L67.2611465,79.8832117 L23.8216561,79.8832117 L23.8216561,77.080292 Z M23.8216561,82.6861314 L82.6751592,82.6861314 L82.6751592,85.4890511 L23.8216561,85.4890511 L23.8216561,82.6861314 Z M23.8216561,88.2919708 L75.6687898,88.2919708 L75.6687898,91.0948905 L23.8216561,91.0948905 L23.8216561,88.2919708 Z M23.8216561,95.2992701 L67.2611465,95.2992701 L67.2611465,98.1021898 L23.8216561,98.1021898 L23.8216561,95.2992701 Z" id="Rectangle-15" fill="#D8D8D8"></path>
                            <rect id="Rectangle-14-Copy-5" fill="#FFC680" x="4.20382166" y="107.912409" width="15.4140127" height="15.4160584" rx="2.24000003"></rect>
                            <path d="M23.8216561,107.912409 L77.0700637,107.912409 L77.0700637,110.715328 L23.8216561,110.715328 L23.8216561,107.912409 Z M23.8216561,113.518248 L67.2611465,113.518248 L67.2611465,116.321168 L23.8216561,116.321168 L23.8216561,113.518248 Z M23.8216561,119.124088 L82.6751592,119.124088 L82.6751592,121.927007 L23.8216561,121.927007 L23.8216561,119.124088 Z M23.8216561,124.729927 L75.6687898,124.729927 L75.6687898,127.532847 L23.8216561,127.532847 L23.8216561,124.729927 Z M23.8216561,131.737226 L67.2611465,131.737226 L67.2611465,134.540146 L23.8216561,134.540146 L23.8216561,131.737226 Z" id="Rectangle-15-Copy-29" fill="#D8D8D8"></path>
                        </g>
                    </g>
                </g>
            </g>
        </g>
    </g>
</svg>